<?xml version="1.0" encoding="utf-8"?>
<!-- Generator: Adobe Illustrator 24.0.0, SVG Export Plug-In . SVG Version: 6.00 Build 0)  -->
<svg version="1.1" xmlns="http://www.w3.org/2000/svg" xmlns:xlink="http://www.w3.org/1999/xlink" x="0px" y="0px"
	 viewBox="0 0 256 256" style="enable-background:new 0 0 256 256;" xml:space="preserve">
<style type="text/css">
	.st0{fill:#F5C84C;}
	.st1{fill:#70D6F9;}
	.st2{fill:#87D147;}
	.st3{fill:#FC657E;}
	.st4{fill:#DAE6F1;}
	.st5{fill:#C18E6B;}
	.st6{fill:#9BE5F9;}
	.st7{fill:#B2E26D;}
	.st8{fill:#F98FA6;}
	.st9{fill:#A57453;}
	.st10{fill:#5290DB;}
	.st11{fill:#F9D0B4;}
	.st12{fill:#5B5D60;}
	.st13{fill:#6CADEF;}
	.st14{fill:#3A70BF;}
	.st15{fill:#FCDD86;}
	.st16{fill:#EDF4FC;}
	.st17{fill:#C7D7E5;}
	.st18{fill:#FCA265;}
	.st19{fill:#EDB311;}
	.st20{fill:#818182;}
	.st21{fill:#CBEFF7;}
	.st22{fill:#57AF12;}
	.st23{fill:#B598F9;}
	.st24{fill:#EF4460;}
	.st25{fill:#754E34;}
	.st26{fill:#FCE4BE;}
	.st27{fill:#FED690;}
	.st28{fill:#3CAADC;}
	.st29{fill:#FC8C48;}
	.st30{fill:#FEB872;}
</style>
<g id="Layer_1">
</g>
<g id="Layer_2">
</g>
<g id="Layer_3">
</g>
<g id="Layer_4">
</g>
<g id="Layer_5">
</g>
<g id="Layer_6">
</g>
<g id="Layer_7">
</g>
<g id="Layer_8">
</g>
<g id="Layer_9">
</g>
<g id="Layer_10">
</g>
<g id="Layer_11">
</g>
<g id="Layer_12">
</g>
<g id="Layer_13">
</g>
<g id="Layer_14">
</g>
<g id="Layer_15">
</g>
<g id="Layer_16">
</g>
<g id="Layer_17">
</g>
<g id="Layer_18">
</g>
<g id="Layer_19">
</g>
<g id="Layer_20">
</g>
<g id="Layer_21">
</g>
<g id="Layer_22">
</g>
<g id="Layer_23">
</g>
<g id="Layer_24">
</g>
<g id="Layer_25">
</g>
<g id="Layer_26">
</g>
<g id="Layer_27">
</g>
<g id="Layer_28">
</g>
<g id="Layer_29">
</g>
<g id="Layer_30">
</g>
<g id="Layer_31">
</g>
<g id="Layer_32">
</g>
<g id="Layer_33">
</g>
<g id="Layer_34">
</g>
<g id="Layer_35">
</g>
<g id="Layer_36">
</g>
<g id="Layer_37">
</g>
<g id="Layer_38">
</g>
<g id="Layer_39">
</g>
<g id="Layer_40">
</g>
<g id="Layer_41">
</g>
<g id="Layer_42">
</g>
<g id="Layer_43">
</g>
<g id="Layer_44">
</g>
<g id="Layer_45">
</g>
<g id="Layer_46">
</g>
<g id="Layer_47">
</g>
<g id="Layer_48">
</g>
<g id="Layer_49">
</g>
<g id="Layer_50">
</g>
<g id="Layer_51">
</g>
<g id="Layer_52">
</g>
<g id="Layer_53">
	<g>
		<g>
			<g>
				<g>
					<path class="st3" d="M128,11.133c-64.457,0-116.897,52.44-116.897,116.897c0,64.773,52.339,116.838,116.886,116.838
						c64.844-0.007,116.908-52.375,116.908-116.838C244.897,63.572,192.457,11.133,128,11.133z M186.27,209.723
						c-16.658,11.955-36.606,18.789-57.696,18.789c-53.315,0-100.937-42.361-100.937-100.483c0-21.112,6.445-41.268,18.638-58.287
						c1.74-2.427,5.24-2.719,7.346-0.613l133.253,133.254C188.983,204.49,188.687,207.988,186.27,209.723z M209.728,186.312
						c-1.74,2.429-5.24,2.726-7.349,0.616L69.101,53.65c-2.113-2.112-1.809-5.613,0.617-7.348
						c17.015-12.189,37.164-18.633,58.27-18.635c0.003,0,0.008,0,0.012,0c55.19,0,100.363,45.173,100.363,100.363
						C228.363,149.14,221.919,169.293,209.728,186.312z"/>
				</g>
			</g>
		</g>
		<g>
			<g>
				<path class="st0" d="M157.353,53.722h-57.77c-1.84,0-3.331,1.491-3.331,3.331v17.669h41.101l25.432,25.432v47.18l20,20v-88.18
					L157.353,53.722z"/>
			</g>
		</g>
		<g>
			<g>
				<path class="st4" d="M76.252,91.761v105.86c0,2.313,1.875,4.188,4.189,4.188h78.155c2.452,0,4.188-2.089,4.188-4.359v-19.157
					L76.252,91.761z"/>
			</g>
		</g>
		<g>
			<g>
				<polygon class="st4" points="137.353,74.722 90.174,74.722 162.785,147.333 162.785,100.154 				"/>
			</g>
		</g>
		<g>
			<g>
				<path class="st16" d="M137.353,74.722v21.243c0,2.313,1.875,4.188,4.188,4.188h21.243L137.353,74.722z"/>
			</g>
		</g>
		<g>
			<g>
				<path class="st15" d="M157.353,53.722v21.243c0,2.313,1.875,4.188,4.188,4.188h21.243L157.353,53.722z"/>
			</g>
		</g>
		<g>
			<g>
				<g>
					<path d="M55.389,67.362c-1.521-1.522-3.63-2.296-5.774-2.118c-2.154,0.176-4.112,1.284-5.372,3.041l0,0.001
						c-12.499,17.446-19.105,38.105-19.105,59.743c0,28.244,11.095,54.467,31.243,73.839c19.262,18.521,45.576,29.144,72.194,29.144
						c21.144,0,41.599-6.659,59.154-19.258c1.753-1.259,2.858-3.215,3.033-5.367c0.175-2.147-0.599-4.251-2.12-5.771L55.389,67.362z
						 M185.778,205.981c-0.033,0.403-0.202,1.162-0.966,1.71c-16.7,11.985-36.146,18.32-56.238,18.32
						c-25.339,0-50.39-10.113-68.729-27.747c-19.158-18.421-29.708-43.364-29.708-70.235c0-20.587,6.283-40.238,18.17-56.831
						c0.551-0.768,1.311-0.938,1.715-0.971c0.399-0.036,1.171,0.01,1.831,0.67l133.254,133.254
						C185.767,204.811,185.811,205.581,185.778,205.981z M127.987,25.166c-21.632,0.003-42.285,6.608-59.724,19.103
						c-1.76,1.26-2.871,3.218-3.048,5.374c-0.176,2.148,0.596,4.253,2.119,5.774l133.278,133.279c1.38,1.38,3.237,2.144,5.172,2.144
						c0.2,0,0.401-0.009,0.603-0.025c2.154-0.177,4.113-1.287,5.374-3.046c12.497-17.446,19.103-38.104,19.103-59.739
						C230.862,71.311,184.719,25.166,127.987,25.166z M207.695,184.856c-0.553,0.771-1.313,0.942-1.719,0.976
						c-0.395,0.027-1.17-0.011-1.83-0.671L70.868,51.881c-0.66-0.659-0.703-1.429-0.67-1.828c0.033-0.405,0.204-1.167,0.974-1.718
						c0,0,0.001-0.001,0.001-0.001C87.76,36.451,107.406,30.169,128,30.166c53.962,0,97.862,43.901,97.862,97.863
						C225.862,148.614,219.58,168.265,207.695,184.856z M128,8.633C62.164,8.633,8.603,62.194,8.603,128.029
						c0,31.968,12.42,61.97,34.972,84.479c22.522,22.479,52.501,34.859,84.414,34.859h0c31.992-0.003,62.016-12.427,84.539-34.981
						c22.485-22.517,34.868-52.475,34.868-84.356C247.396,62.194,193.835,8.633,128,8.633z M208.99,208.853
						c-21.579,21.609-50.346,33.512-81.001,33.515c-30.579,0-59.303-11.861-80.882-33.398
						c-21.605-21.564-33.504-50.309-33.504-80.939C13.603,64.951,64.921,13.633,128,13.633c63.078,0,114.396,51.318,114.396,114.396
						C242.396,158.577,230.532,187.28,208.99,208.853z"/>
				</g>
			</g>
		</g>
		<g>
			<g>
				<path class="st0" d="M189.669,0c-1.878,0-3.4,1.522-3.4,3.4c0,1.878,1.522,3.4,3.4,3.4c1.878,0,3.4-1.522,3.4-3.4
					C193.069,1.522,191.547,0,189.669,0z"/>
			</g>
		</g>
		<g>
			<g>
				<path class="st1" d="M231.451,23.2c-4.5-0.8-8-4.3-8.9-8.7c0-0.2-0.4-0.2-0.4,0c-0.9,4.4-4.4,7.9-8.9,8.7c-0.2,0-0.2,0.3,0,0.4
					c4.5,0.8,8,4.3,8.9,8.7c0,0.2,0.4,0.2,0.4,0c0.9-4.4,4.4-7.9,8.9-8.7C231.651,23.5,231.651,23.2,231.451,23.2z"/>
			</g>
		</g>
		<g>
			<g>
				<path class="st2" d="M42.369,231.1h-2.4v-2.3c0-1.8-1.4-3.2-3.2-3.2c-1.7,0-3.2,1.4-3.2,3.1v2.4h-2.3c-1.8,0-3.2,1.4-3.2,3.2
					c-0.1,1.7,1.3,3.2,3.2,3.2h2.3v2.3c0,1.8,1.4,3.2,3.2,3.2c1.7,0,3.2-1.4,3.2-3.1v-2.4h2.3c1.8,0,3.2-1.4,3.2-3.2
					C45.469,232.6,44.069,231.1,42.369,231.1z"/>
			</g>
		</g>
		<g>
			<g>
				<path class="st1" d="M61.669,249.2c-1.878,0-3.4,1.522-3.4,3.4c0,1.878,1.522,3.4,3.4,3.4c1.878,0,3.4-1.522,3.4-3.4
					C65.069,250.722,63.547,249.2,61.669,249.2z"/>
			</g>
		</g>
		<g>
			<g>
				<path class="st0" d="M238.451,220.2c-3.1-0.6-5.6-3-6.2-6.1c0-0.1-0.3-0.1-0.3,0c-0.6,3.1-3.1,5.5-6.2,6.1c-0.1,0-0.1,0.2,0,0.3
					c3.1,0.6,5.6,3,6.2,6.1c0,0.1,0.3,0.1,0.3,0c0.6-3.1,3.1-5.5,6.2-6.1C238.551,220.4,238.551,220.2,238.451,220.2z"/>
			</g>
		</g>
		<g>
			<g>
				<path d="M184.553,77.387l-25.432-25.432c-0.469-0.469-1.104-0.732-1.768-0.732h-57.77c-3.215,0-5.831,2.615-5.831,5.83V73.75
					c0,1.381,1.119,2.5,2.5,2.5s2.5-1.119,2.5-2.5V57.053c0-0.458,0.373-0.83,0.831-0.83h56.735l23.967,23.967v86.519
					c0,1.381,1.119,2.5,2.5,2.5s2.5-1.119,2.5-2.5V79.154C185.285,78.491,185.021,77.855,184.553,77.387z"/>
			</g>
		</g>
		<g>
			<g>
				<path d="M162.785,176.146c-1.381,0-2.5,1.119-2.5,2.5v18.806c0,0.894-0.646,1.858-1.688,1.858H80.441
					c-0.931,0-1.688-0.758-1.688-1.688V92.375c0-1.381-1.119-2.5-2.5-2.5s-2.5,1.119-2.5,2.5v105.246c0,3.688,3,6.688,6.688,6.688
					h78.156c3.688,0,6.688-3.077,6.688-6.858v-18.806C165.285,177.265,164.166,176.146,162.785,176.146z"/>
			</g>
		</g>
		<g>
			<g>
				<path d="M164.553,98.387l-25.432-25.432c-0.469-0.469-1.104-0.732-1.768-0.732h-46.77c-1.381,0-2.5,1.119-2.5,2.5
					s1.119,2.5,2.5,2.5h45.735l23.967,23.967v45.596c0,1.381,1.119,2.5,2.5,2.5s2.5-1.119,2.5-2.5v-46.631
					C165.285,99.491,165.021,98.855,164.553,98.387z"/>
			</g>
		</g>
		<g>
			<g>
				<path d="M161.437,97.654h-19.896c-0.931,0-1.688-0.758-1.688-1.688V75.75c0-1.381-1.119-2.5-2.5-2.5s-2.5,1.119-2.5,2.5v20.216
					c0,3.688,3,6.688,6.688,6.688h19.896c1.381,0,2.5-1.119,2.5-2.5S162.818,97.654,161.437,97.654z"/>
			</g>
		</g>
		<g>
			<g>
				<path d="M182.104,76.654h-20.563c-0.931,0-1.688-0.758-1.688-1.688V54.5c0-1.381-1.119-2.5-2.5-2.5s-2.5,1.119-2.5,2.5v20.466
					c0,3.688,3,6.688,6.688,6.688h20.563c1.381,0,2.5-1.119,2.5-2.5S183.485,76.654,182.104,76.654z"/>
			</g>
		</g>
	</g>
</g>
<g id="Layer_54">
</g>
<g id="Layer_55">
</g>
<g id="Layer_56">
</g>
<g id="Layer_57">
</g>
<g id="Layer_58">
</g>
<g id="Layer_59">
</g>
<g id="Layer_60">
</g>
<g id="Layer_61">
</g>
<g id="Layer_62">
</g>
<g id="Layer_63">
</g>
<g id="Layer_64">
</g>
<g id="Layer_65">
</g>
<g id="Layer_66">
</g>
<g id="Layer_67">
</g>
<g id="Layer_68">
</g>
<g id="Layer_69">
</g>
<g id="Layer_70">
</g>
<g id="Layer_71">
</g>
<g id="Layer_72">
</g>
<g id="Layer_73">
</g>
<g id="Layer_74">
</g>
<g id="Layer_75">
</g>
<g id="Layer_76">
</g>
<g id="Layer_77">
</g>
<g id="Layer_78">
</g>
<g id="Layer_79">
</g>
<g id="Layer_80">
</g>
</svg>
