<svg id="Camada_1" data-name="Camada 1" xmlns="http://www.w3.org/2000/svg" viewBox="0 0 923.71 342.44">
  <defs>
    <style>
      .cls-1, .cls-3 {
        fill: #fff;
      }

      .cls-1, .cls-2 {
        fill-rule: evenodd;
      }

      .cls-2 {
        fill: #020304;
      }

      .cls-3 {
        font-size: 52.44px;
        font-family: NirmalaUI-Bold, Nirmala UI;
        font-weight: 700;
      }
    </style>
  </defs>
  <g>
    <path class="cls-1" d="M364.66,9.47C176.68-1.65,37,19.78,11.49,90.84-8.31,145.92,49.2,192.57,117.83,205.59,23.69,63.45,132.75,1.88,364.66,9.47"/>
    <path class="cls-2" d="M317.6,145.78H228.15l7.37-25.66H345.19L385.8,76.06H223.25c-26.74,0-55.12,22-62.86,48.78l-4.9,16.26c-7,26.74,9,48.78,35.76,48.78h89.46l-7.23,26H134L122.23,260H285.74c26.72,0,55.12-22.05,62.87-48.8l5.27-18.42h-.07c5.85-25.92-10.08-47-36.21-47"/>
    <path class="cls-2" d="M454.39,76.11,442,122.53H391.41l12.38-46.42ZM437.93,138,409,246.8c-1.86,6.23,1.07,11.51,6.59,13.19H368.12c-7.2,0-11.81-6.23-9.71-13.68L387.28,138Z"/>
    <path class="cls-2" d="M573.16,126.58l-8.69,32-35.52,0-19.1,69.48h35.86L536.38,260H494.52c-2,0-3.83,0-5.68,0-35.44.22-37.61-16.06-28.3-49.54l14.06-51.8H451l9.07-32.07,23.24,0,14-51.47,54.62-.06-14.17,51.54Z"/>
    <path class="cls-2" d="M735.38,173.38c-5.69,19.61-26.48,35.49-46.09,35.49h-66l-5.1,18.81H720.94L712.27,260H591.15c-19.6,0-31.56-16.21-26.22-35.76l17.27-63.29c5.68-19.6,26.48-35.75,46.07-35.75h84.56c19.58,0,31.38,16.15,26.22,35.75Zm-49.65-15.89H637.26l-5.18,19.08h48.49Z"/>
    <path class="cls-2" d="M730.22,260l145.87,0a22,22,0,0,0,1.08-3.1L891.28,206c-2.23,4.81-5.81,8.68-9.46,10.17H792.41l12.41-46.7h95.59L912.65,125H800c-18.22,0-39.32,22.08-46.65,48.5Z"/>
    <text class="cls-3" transform="matrix(0.96, 0, -0.31, 1.03, 108.04, 311.75)">PAPERLESS</text>
  </g>
</svg>
